<svg width="30" height="30" viewBox="0 0 30 30" fill="none" xmlns="http://www.w3.org/2000/svg">
<path fill-rule="evenodd" clip-rule="evenodd" d="M15.0014 0C14.1997 0 13.5498 0.64991 13.5498 1.45161V13.5484H1.45161C0.649909 13.5484 0 14.1983 0 15C0 15.8017 0.64991 16.4516 1.45161 16.4516H13.5498V28.5484C13.5498 29.3501 14.1997 30 15.0014 30C15.8031 30 16.453 29.3501 16.453 28.5484V16.4516H28.5484C29.3501 16.4516 30 15.8017 30 15C30 14.1983 29.3501 13.5484 28.5484 13.5484H16.453V1.45161C16.453 0.649909 15.8031 0 15.0014 0Z" fill="white"/>
</svg>
