<svg width="190" height="49" viewBox="0 0 190 49" fill="none" xmlns="http://www.w3.org/2000/svg">
<path d="M60.672 42.8801C60.7704 43.1693 60.8451 43.3913 60.8963 43.5498H59.421C58.9764 42.2024 58.6814 41.3703 58.5319 41.0532C58.2604 40.5143 57.926 40.1894 57.5287 40.0784C57.3949 40.0388 57.2376 40.0229 57.0566 40.0229H56.4036C56.4547 40.3241 56.4822 40.5817 56.4822 40.7957V43.5537H55.0739V35.7234H56.4822V38.0257C56.4822 38.2912 56.4547 38.5924 56.4036 38.9332H57.0566C57.2887 38.9332 57.4972 38.8896 57.6821 38.8024C57.867 38.7152 58.0283 38.5845 58.166 38.4061C58.3037 38.2278 58.4296 38.0218 58.5437 37.78C58.6578 37.5423 58.7679 37.253 58.882 36.9161C58.9961 36.5793 59.1102 36.2227 59.2322 35.8423C59.2479 35.7907 59.2597 35.7471 59.2676 35.7154H60.6996C60.2786 37.0073 59.9954 37.8078 59.8419 38.1089C59.5429 38.7509 59.1574 39.1551 58.6932 39.3215C58.5516 39.373 58.3942 39.4127 58.2211 39.4364V39.48C58.8584 39.5474 59.3226 39.8089 59.6059 40.2567C59.8891 40.7164 60.2432 41.5882 60.672 42.8801ZM67.3796 36.4446C67.8477 37.0271 68.0838 38.0891 68.0838 39.6346C68.0838 41.1761 67.8477 42.2421 67.3796 42.8246C66.9114 43.4071 66.0735 43.6964 64.8736 43.6964C63.6776 43.6964 62.8476 43.4071 62.3794 42.8246C61.9112 42.2421 61.6752 41.18 61.6752 39.6346C61.6752 38.0931 61.9112 37.0271 62.3794 36.4446C62.8476 35.8621 63.6816 35.5728 64.8736 35.5728C66.0774 35.5728 66.9114 35.8621 67.3796 36.4446ZM66.5967 39.6346C66.5967 38.5448 66.4748 37.7998 66.2308 37.3917C65.9869 36.9875 65.5345 36.7854 64.8736 36.7854C64.2205 36.7854 63.7721 36.9875 63.5281 37.3917C63.2842 37.7959 63.1623 38.5448 63.1623 39.6346C63.1623 40.7243 63.2842 41.4693 63.5281 41.8775C63.7721 42.2817 64.2205 42.4838 64.8736 42.4838C65.5345 42.4838 65.9869 42.2817 66.2308 41.8775C66.4748 41.4693 66.5967 40.7243 66.5967 39.6346ZM77.1754 35.7194H75.7316C75.4169 35.7194 75.2162 35.8779 75.1336 36.1949L74.0281 40.4271C74.0124 40.4945 73.9337 40.8551 73.7921 41.505H73.6229C73.5482 41.081 73.4734 40.7243 73.3987 40.439L72.2814 36.1949C72.2067 35.8779 72.0139 35.7194 71.7071 35.7194H70.2554C69.9013 35.7194 69.7164 35.9057 69.7046 36.2742L69.4135 43.5498H70.7865L71.0225 36.8646H71.2271L72.5804 42.0717C72.663 42.3887 72.8676 42.5472 73.1902 42.5472H74.2603C74.575 42.5472 74.7756 42.3887 74.8582 42.0717L76.1998 36.8646H76.4043L76.6758 43.5498H78.0488L77.7458 36.2742C77.7183 35.9057 77.5295 35.7194 77.1754 35.7194ZM79.6421 43.5498H81.0504V36.821H84.1151V43.5498H85.5235V35.7194H79.6421V43.5498ZM92.7346 41.1999C92.7346 42.1311 92.5497 42.7691 92.176 43.1178C91.8062 43.4665 91.1688 43.6409 90.268 43.6409C88.9854 43.6409 87.998 43.6092 87.3174 43.5498H87.282V35.7194H88.6904V38.7152H90.0319C91.0469 38.7152 91.7511 38.8936 92.1445 39.2542C92.5379 39.6148 92.7346 40.2607 92.7346 41.1999ZM91.3144 41.1761C91.3144 40.653 91.2318 40.2964 91.0666 40.1022C90.9013 39.908 90.5551 39.8129 90.0319 39.8129H88.6904V42.4442L90.0319 42.4561C90.5669 42.4561 90.9131 42.3728 91.0744 42.2064C91.2357 42.0439 91.3144 41.6992 91.3144 41.1761ZM102.566 36.4446C103.034 37.0271 103.27 38.0891 103.27 39.6346C103.27 41.1761 103.034 42.2421 102.566 42.8246C102.098 43.4071 101.26 43.6964 100.06 43.6964C98.978 43.6964 98.2108 43.4309 97.7623 42.9038C97.3099 42.3728 97.0699 41.4218 97.0424 40.0427H95.4767V43.5498H94.0683V35.7194H95.4767V38.9411H97.0542C97.1132 37.677 97.3689 36.8012 97.8213 36.3099C98.2738 35.8185 99.0173 35.5728 100.064 35.5728C101.26 35.5728 102.094 35.8621 102.566 36.4446ZM101.779 39.6346C101.771 38.5448 101.645 37.7998 101.401 37.3917C101.157 36.9875 100.709 36.7854 100.056 36.7854C99.4264 36.7854 98.9937 36.9875 98.7616 37.3917C98.5295 37.7959 98.4115 38.5448 98.4115 39.6346C98.4115 40.7243 98.5295 41.4693 98.7616 41.8775C98.9937 42.2817 99.4264 42.4838 100.056 42.4838C100.709 42.4838 101.157 42.2817 101.401 41.8775C101.649 41.4693 101.775 40.7243 101.779 39.6346ZM104.021 36.932H106.398V43.5498H107.818V36.932H110.218V35.7194H104.021V36.932ZM112.798 37.0231C112.881 36.9241 113.023 36.8765 113.227 36.8765H116.28L116.335 35.7868C115.651 35.7273 114.51 35.6956 112.908 35.6956C112.397 35.6956 111.996 35.8264 111.705 36.0919C111.414 36.3574 111.264 36.718 111.264 37.1817V42.0836C111.264 42.5432 111.41 42.9078 111.705 43.1733C111.996 43.4388 112.401 43.5696 112.908 43.5696C114.51 43.5696 115.651 43.5379 116.335 43.4784L116.28 42.4006H113.227C113.023 42.4006 112.881 42.353 112.798 42.254C112.716 42.1549 112.676 41.9845 112.676 41.7428V39.9952H115.855V38.9054H112.676V37.5343C112.676 37.2926 112.716 37.1222 112.798 37.0231ZM123.22 38.1367C123.22 39.1115 123.039 39.7772 122.673 40.1299C122.307 40.4826 121.658 40.657 120.718 40.657C120.171 40.657 119.648 40.6253 119.152 40.5658V43.5498H117.732V35.7194C118.4 35.652 119.341 35.6164 120.548 35.6164C121.563 35.6164 122.26 35.7907 122.645 36.1434C123.027 36.4961 123.22 37.1618 123.22 38.1367ZM121.799 38.1367C121.799 37.6057 121.709 37.249 121.528 37.0628C121.347 36.8765 121.009 36.7854 120.513 36.7854H119.148V39.4959H120.513C121.009 39.488 121.347 39.3929 121.528 39.2066C121.709 39.0243 121.799 38.6677 121.799 38.1367ZM128.975 38.7945H125.911V35.7194H124.502V43.5498H125.911V39.9635H128.975V43.5498H130.395V35.7194H128.975V38.7945ZM138.822 43.5498H140.231V35.7194H138.822V43.5498ZM137.595 41.1999C137.595 42.1311 137.41 42.7691 137.036 43.1178C136.666 43.4665 136.029 43.6409 135.128 43.6409C133.849 43.6409 132.87 43.6092 132.189 43.5498H132.154V35.7194H133.562V38.7152H134.892C135.907 38.7152 136.611 38.8936 137.005 39.2542C137.398 39.6148 137.595 40.2607 137.595 41.1999ZM136.175 41.1761C136.175 40.653 136.092 40.2964 135.927 40.1022C135.761 39.908 135.415 39.8129 134.892 39.8129H133.562V42.4442L134.892 42.4561C135.427 42.4561 135.773 42.3728 135.935 42.2064C136.096 42.0439 136.175 41.6992 136.175 41.1761ZM145.109 35.1408C145.679 35.1408 146.128 34.9784 146.454 34.6574C146.781 34.3364 146.922 33.9401 146.875 33.4725H145.907C145.923 34.1066 145.656 34.4276 145.109 34.4276C144.546 34.4276 144.271 34.1105 144.287 33.4725H143.319C143.268 33.9401 143.405 34.3364 143.74 34.6574C144.074 34.9784 144.53 35.1408 145.109 35.1408ZM143.755 40.8591C143.567 41.1999 143.425 41.5129 143.327 41.8022H143.248C143.307 41.501 143.338 41.1602 143.338 40.7798V35.7194H141.985V43.5498H143.417L146.356 38.3863C146.49 38.1604 146.635 37.8434 146.785 37.4313H146.852C146.793 37.78 146.761 38.1089 146.761 38.418V43.5498H148.122V35.7194H146.678L143.755 40.8591ZM155.247 42.4362C154.602 42.4362 154.161 42.2381 153.925 41.8418C153.689 41.4456 153.571 40.7085 153.571 39.6346C153.571 38.5607 153.689 37.8236 153.925 37.4273C154.161 37.0311 154.602 36.8329 155.247 36.8329C155.99 36.8329 156.691 36.8607 157.344 36.9122L157.477 35.8343C156.856 35.6679 156.112 35.5847 155.247 35.5847C154.082 35.5847 153.264 35.8858 152.792 36.4921C152.32 37.0984 152.084 38.1446 152.084 39.6346C152.084 41.1246 152.32 42.1747 152.792 42.777C153.264 43.3833 154.082 43.6845 155.247 43.6845C156.215 43.6845 157.013 43.5854 157.635 43.3913L157.509 42.3253C156.954 42.4006 156.203 42.4362 155.247 42.4362ZM162.773 36.0959L165.106 43.5498H163.662L163.021 41.3386H160.137L159.496 43.5498H158.052L160.385 36.0959C160.452 35.8462 160.621 35.7194 160.892 35.7194H162.265C162.537 35.7194 162.706 35.8462 162.773 36.0959ZM162.682 40.1696L161.903 37.467C161.797 37.0588 161.742 36.8369 161.734 36.7973H161.431L161.25 37.467L160.471 40.1696H162.682ZM167.021 37.3085C166.931 38.5488 166.84 39.4642 166.75 40.0507C166.66 40.6372 166.53 41.1483 166.357 41.5882C166.258 41.8458 166.121 42.04 165.94 42.1707C165.759 42.3015 165.527 42.4045 165.239 42.4719L165.353 43.5735C166.443 43.6647 167.218 43.1258 167.686 41.9607C167.875 41.501 168.013 40.9661 168.103 40.3677C168.194 39.7654 168.292 38.8222 168.394 37.5383C168.438 37.0628 168.69 36.825 169.15 36.825H170.354V43.5498H171.774V35.7194H168.756C167.686 35.7194 167.108 36.2504 167.021 37.3085ZM178.957 36.4446C179.426 37.0271 179.662 38.0891 179.662 39.6346C179.662 41.1761 179.426 42.2421 178.957 42.8246C178.489 43.4071 177.651 43.6964 176.451 43.6964C175.255 43.6964 174.425 43.4071 173.957 42.8246C173.489 42.2421 173.253 41.18 173.253 39.6346C173.253 38.0931 173.489 37.0271 173.957 36.4446C174.425 35.8621 175.259 35.5728 176.451 35.5728C177.651 35.5728 178.485 35.8621 178.957 36.4446ZM178.175 39.6346C178.175 38.5448 178.053 37.7998 177.809 37.3917C177.565 36.9875 177.112 36.7854 176.451 36.7854C175.798 36.7854 175.35 36.9875 175.106 37.3917C174.862 37.7959 174.74 38.5448 174.74 39.6346C174.74 40.7243 174.862 41.4693 175.106 41.8775C175.35 42.2817 175.798 42.4838 176.451 42.4838C177.112 42.4838 177.565 42.2817 177.809 41.8775C178.049 41.4693 178.175 40.7243 178.175 39.6346ZM185.606 35.7194V38.7945H182.541V35.7194H181.137V43.5498H182.545V39.9635H185.61V43.5498H187.03V35.7194H185.606Z" fill="white"/>
<path fill-rule="evenodd" clip-rule="evenodd" d="M55.8292 10.1005C57.1589 7.38601 59.6256 6.03076 63.2331 6.03076C65.9122 6.03076 67.9737 6.75198 69.4096 8.18648C70.8534 9.62891 71.5733 11.6578 71.5733 14.2772C71.5733 17.0035 70.8613 19.0998 69.4371 20.5581C68.0169 22.0203 66.0145 22.7495 63.4377 22.7495C61.1166 22.7495 59.3305 22.2898 58.0834 21.3665C56.8363 20.4432 55.963 19.2464 55.4673 17.7763L60.1331 16.5082C60.5855 18.1686 61.6241 19.0007 63.2528 19.0007C65.1529 19.0007 66.2348 17.9665 66.5063 15.9019H61.6674V12.9021H66.5299C66.2151 10.8217 65.1175 9.77949 63.2331 9.77949C61.7657 9.77949 60.7861 10.4571 60.2983 11.8084L55.8292 10.1005ZM74.4176 18.6443C74.6969 18.3471 74.8346 17.8002 74.8346 17.0077V6.3083H88.6196V22.4802H83.6587V10.279H79.7837V15.2561C79.7837 17.3009 79.6775 18.8028 79.4611 19.7618C79.2447 20.7207 78.7412 21.4261 77.9504 21.8739C77.1557 22.3217 75.8772 22.5475 74.1108 22.5475C73.5718 22.5475 72.9502 22.4881 72.25 22.3692V19.0921H72.9935C73.6662 19.0921 74.1383 18.9415 74.4176 18.6443ZM96.2438 15.2522V6.3083H91.5662V22.4762H96.2478L102.255 13.5997V22.4762H106.917V6.3083H102.279L96.2438 15.2522ZM113.664 10.2988H108.605V6.3083H123.684V10.2988H118.625V22.4762H113.664V10.2988ZM130.36 15.6286H138.083V12.3316H130.36V9.75983H138.684V6.3083H125.391V22.4762H138.924V18.8146H130.36V15.6286ZM149.617 6.30407C151.415 6.30407 152.761 6.73601 153.654 7.59591C154.547 8.45979 154.995 9.6803 154.995 11.2694C154.995 12.902 154.507 14.178 153.532 15.0973C152.56 16.0167 151.069 16.4764 149.07 16.4764H146.356V22.4759H141.371V6.30407H149.617ZM147.572 13.2032C148.528 13.2032 149.2 13.0328 149.586 12.6999C149.971 12.3631 150.168 11.9351 150.168 11.4199C150.168 10.9127 149.999 10.4808 149.664 10.1281C149.326 9.77541 148.697 9.59709 147.768 9.59709H146.356V13.2032H147.572ZM169.122 7.59591C168.229 6.73601 166.884 6.30407 165.086 6.30407H156.84V22.4759H161.825V16.4764H164.539C166.538 16.4764 168.029 16.0167 169 15.0973C169.976 14.178 170.464 12.902 170.464 11.2694C170.464 9.6803 170.019 8.45979 169.122 7.59591ZM165.055 12.6999C164.669 13.0328 163.996 13.2032 163.04 13.2032H161.825V9.59709H163.237C164.165 9.59709 164.795 9.77541 165.133 10.1281C165.468 10.4808 165.637 10.9127 165.637 11.4199C165.637 11.9351 165.444 12.3631 165.055 12.6999ZM175.673 6.3083H181.082L187.113 22.4802H181.92L181.117 19.8093H175.484L174.701 22.4802H169.638L175.673 6.3083ZM178.316 10.4969L176.562 16.3102H180.087L178.316 10.4969Z" fill="white"/>
<path d="M39.5491 24.1585C39.5381 24.3856 39.5299 24.6155 39.5161 24.8426C39.4556 25.8564 39.3237 26.859 39.1312 27.8561C38.9359 28.8643 38.672 29.8531 38.3475 30.8253C37.9048 32.1409 37.3466 33.4067 36.6784 34.6254C36.0872 35.7 35.4163 36.7193 34.6657 37.6887C33.926 38.6442 33.1176 39.5333 32.2404 40.3615C31.3523 41.2007 30.4036 41.9679 29.3917 42.6548C29.0425 42.8902 28.685 43.1118 28.3303 43.3417C28.2781 43.375 28.2286 43.4054 28.1708 43.4414L28.1653 49.0003H23.8648V45.4661C23.7933 45.4495 23.7136 45.4855 23.6531 45.5049C23.3946 45.5824 23.1361 45.6683 22.8777 45.7458C22.1352 45.9674 21.3818 46.1447 20.6202 46.2859C19.842 46.43 19.0583 46.5325 18.2692 46.5962C17.26 46.6792 16.2481 46.6931 15.2362 46.646C14.5021 46.61 13.7706 46.538 13.042 46.4327C12.0713 46.2915 11.1144 46.0893 10.1713 45.8262C9.15663 45.5437 8.16674 45.1919 7.20159 44.7709C6.40968 44.4274 5.63701 44.0397 4.88909 43.6076C3.88545 43.026 2.9258 42.3778 2.0184 41.6549C1.33647 41.1121 0.684793 40.536 0.068859 39.9183C0.049611 39.8989 0.00561523 39.838 0.00561523 39.838C0.00561523 39.838 0.0193639 39.8269 0.0221136 39.8214C0.965263 38.8492 1.92216 37.8687 2.87356 36.891C2.87356 36.891 2.9313 36.9602 2.96155 36.9907C3.67647 37.7081 4.44639 38.359 5.2658 38.9517C6.1842 39.6164 7.15485 40.1925 8.17499 40.6828C9.25012 41.1979 10.3665 41.6079 11.5186 41.9125C12.2418 42.1036 12.9732 42.2477 13.7129 42.3529C14.5791 42.4748 15.4507 42.5329 16.3251 42.5357C17.1005 42.5357 17.8732 42.4914 18.6431 42.3972C20.3837 42.1867 22.061 41.738 23.6778 41.0622C23.7383 41.0373 25.3661 40.2535 25.9381 39.8602L28.2011 38.3423C28.4348 38.2177 29.301 37.4422 29.9554 36.7691C31.3028 35.387 32.4136 33.836 33.2935 32.1132C34.1955 30.3461 34.8031 28.4821 35.1304 26.5239C35.2678 25.6957 35.3998 24.2998 35.3558 23.9674C35.4768 22.5188 35.3751 21.1146 35.0286 19.7546C35.0259 19.7159 35.0286 19.6826 35.0231 19.6522C34.9406 19.2145 34.8389 18.7825 34.7234 18.3504C34.2202 16.4808 33.4475 14.7331 32.4164 13.099C31.3908 11.4759 30.1479 10.0412 28.6933 8.7948C27.5852 7.84478 26.3863 7.03047 25.0939 6.35743C23.8923 5.73147 22.6384 5.23845 21.3296 4.88116C20.5597 4.67343 19.7815 4.51278 18.9923 4.40476C17.9722 4.26351 16.9466 4.1998 15.9154 4.22473C15.1867 4.24412 14.4581 4.29951 13.7349 4.40199C12.9182 4.51555 12.1126 4.68174 11.3152 4.90055C10.3198 5.17475 9.35736 5.52928 8.41971 5.96136C7.38583 6.43775 6.40418 7.00555 5.47203 7.6592C4.65812 8.22977 3.8937 8.86127 3.17878 9.5537C3.09903 9.63126 3.01929 9.70881 2.92855 9.79744C1.94691 8.80587 0.979011 7.82539 0.00561523 6.84213C0.035862 6.80889 0.0578601 6.77843 0.0826075 6.7535C1.05325 5.78963 2.09814 4.91717 3.22002 4.13333C4.52063 3.22763 5.90098 2.46595 7.35558 1.84276C8.32897 1.42453 9.32712 1.08385 10.35 0.806877C11.2272 0.56868 12.1153 0.385877 13.0117 0.25293C13.7954 0.136601 14.5818 0.0645877 15.371 0.0313508C16.1299 -0.00188599 16.8861 0.000883573 17.6422 0.0424296C18.2994 0.0784362 18.9538 0.14214 19.6055 0.233541C20.4167 0.3471 21.2196 0.502205 22.0143 0.701626C22.9052 0.925975 23.7796 1.20018 24.6402 1.52978C26.3011 2.16682 27.8684 2.98666 29.3395 3.98653C30.3239 4.65404 31.2478 5.39356 32.1194 6.20509C33.4283 7.42378 34.5832 8.77541 35.5868 10.26C36.3842 11.4427 37.0661 12.689 37.6353 13.9991C38.221 15.3452 38.6747 16.7329 38.9937 18.1676C39.1009 18.6467 39.1807 19.1287 39.2742 19.6106C39.4116 20.2338 39.5904 23.0672 39.5491 24.1585Z" fill="white"/>
<path d="M28.1844 23.967V48.9944H23.8647L23.8509 23.9449H9.32147V19.7681L43.0191 19.7543V23.9615L28.1844 23.967Z" fill="white"/>
</svg>
