<svg width="254" height="65" viewBox="0 0 254 65" fill="none" xmlns="http://www.w3.org/2000/svg">
<path fill-rule="evenodd" clip-rule="evenodd" d="M74.6348 13.3986C76.4125 9.79778 79.71 8 84.5327 8C88.1142 8 90.8701 8.95671 92.7897 10.8596C94.7198 12.7731 95.6822 15.4645 95.6822 18.9391C95.6822 22.5557 94.7303 25.3365 92.8265 27.271C90.9279 29.2107 88.251 30.1779 84.8062 30.1779C81.7032 30.1779 79.3156 29.5681 77.6484 28.3433C75.9812 27.1185 74.8137 25.531 74.151 23.5808L80.3884 21.8986C80.9932 24.1012 82.3817 25.2051 84.559 25.2051C87.0992 25.2051 88.5455 23.8331 88.9084 21.0944H82.4395V17.1151H88.9399C88.5192 14.3553 87.0519 12.9728 84.5327 12.9728C82.571 12.9728 81.2615 13.8717 80.6093 15.6642L74.6348 13.3986ZM99.4846 24.7322C99.858 24.3379 100.042 23.6125 100.042 22.5612V8.36816H118.47V29.8207H111.838V13.6354H106.658V20.2377C106.658 22.9502 106.516 24.9425 106.227 26.2146C105.938 27.4867 105.264 28.4224 104.207 29.0164C103.145 29.6104 101.436 29.91 99.0744 29.91C98.3539 29.91 97.5229 29.8312 96.5868 29.6735V25.3262H97.5808C98.4801 25.3262 99.1112 25.1264 99.4846 24.7322ZM128.663 20.2325V8.36816H122.41V29.8154H128.668L136.699 18.0404V29.8154H142.931V8.36816H136.73L128.663 20.2325ZM151.951 13.6616H145.187V8.36816H165.346V13.6616H158.583V29.8154H151.951V13.6616ZM174.271 20.7318H184.595V16.3583H174.271V12.9467H185.399V8.36816H167.628V29.8154H185.72V24.9582H174.271V20.7318ZM200.015 8.36255C202.418 8.36255 204.217 8.93553 205.411 10.0762C206.604 11.2222 207.204 12.8412 207.204 14.9492C207.204 17.1149 206.552 18.8075 205.248 20.0271C203.949 21.2466 201.955 21.8564 199.284 21.8564H195.655V29.815H188.991V8.36255H200.015ZM197.28 17.5144C198.558 17.5144 199.457 17.2884 199.973 16.8468C200.488 16.4 200.751 15.8323 200.751 15.1489C200.751 14.4761 200.525 13.9031 200.078 13.4352C199.625 12.9674 198.784 12.7308 197.543 12.7308H195.655V17.5144H197.28ZM226.09 10.0762C224.896 8.93553 223.097 8.36255 220.694 8.36255H209.671V29.815H216.334V21.8564H219.963C222.635 21.8564 224.628 21.2466 225.927 20.0271C227.231 18.8075 227.883 17.1149 227.883 14.9492C227.883 12.8412 227.289 11.2222 226.09 10.0762ZM220.652 16.8468C220.136 17.2884 219.237 17.5144 217.959 17.5144H216.334V12.7308H218.222C219.463 12.7308 220.305 12.9674 220.757 13.4352C221.204 13.9031 221.43 14.4761 221.43 15.1489C221.43 15.8323 221.172 16.4 220.652 16.8468ZM234.846 8.36816H242.078L250.14 29.8207H243.198L242.125 26.2777H234.594L233.547 29.8207H226.779L234.846 8.36816ZM238.381 13.9245L236.035 21.636H240.747L238.381 13.9245Z" fill="#005ED5"/>
<path d="M52.8709 32.0471C52.8562 32.3484 52.8452 32.6533 52.8268 32.9546C52.746 34.2993 52.5695 35.6294 52.3122 36.9521C52.0512 38.2894 51.6983 39.6011 51.2646 40.8907C50.6727 42.636 49.9265 44.315 49.0333 45.9317C48.243 47.3572 47.346 48.7093 46.3425 49.9953C45.3537 51.2628 44.273 52.4422 43.1003 53.5408C41.913 54.6541 40.6448 55.6718 39.2921 56.583C38.8252 56.8953 38.3474 57.1892 37.8732 57.4942C37.8033 57.5383 37.7372 57.5787 37.66 57.6264L37.6526 65.0004H31.9035V60.3122C31.8079 60.2902 31.7013 60.338 31.6204 60.3637C31.2749 60.4666 30.9294 60.5804 30.5838 60.6833C29.5913 60.9773 28.5841 61.2124 27.5659 61.3998C26.5256 61.5908 25.478 61.7268 24.423 61.8113C23.0739 61.9215 21.7212 61.9399 20.3684 61.8774C19.387 61.8297 18.4092 61.7341 17.4351 61.5945C16.1375 61.4071 14.8582 61.1389 13.5974 60.7899C12.241 60.4151 10.9176 59.9485 9.62739 59.39C8.56873 58.9344 7.5358 58.4201 6.53594 57.8469C5.19423 57.0753 3.91134 56.2156 2.69828 55.2566C1.78665 54.5365 0.915461 53.7723 0.0920542 52.9529C0.0663228 52.9272 0.00750732 52.8464 0.00750732 52.8464C0.00750732 52.8464 0.0258872 52.8317 0.0295631 52.8243C1.2904 51.5347 2.56963 50.2341 3.84149 48.9371C3.84149 48.9371 3.91869 49.029 3.95912 49.0694C4.91486 50.021 5.94412 50.8844 7.03955 51.6707C8.2673 52.5525 9.56491 53.3167 10.9287 53.967C12.366 54.6504 13.8584 55.1942 15.3986 55.5983C16.3654 55.8518 17.3432 56.0429 18.332 56.1825C19.4899 56.3442 20.6552 56.4213 21.8241 56.425C22.8607 56.425 23.8936 56.3662 24.9229 56.2413C27.2498 55.9621 29.4921 55.3668 31.6535 54.4704C31.7344 54.4373 33.9105 53.3975 34.6751 52.8758L37.7004 50.8624C38.0129 50.697 39.1708 49.6683 40.0456 48.7754C41.8469 46.942 43.3319 44.8845 44.5082 42.5992C45.7139 40.2551 46.5263 37.7824 46.9637 35.1848C47.1475 34.0862 47.324 32.2345 47.2652 31.7936C47.4269 29.872 47.2909 28.0092 46.8277 26.2052C46.824 26.1538 46.8277 26.1097 46.8204 26.0693C46.7101 25.4887 46.5741 24.9156 46.4197 24.3424C45.747 21.8624 44.7141 19.544 43.3356 17.3762C41.9645 15.2232 40.303 13.32 38.3584 11.6666C36.877 10.4064 35.2743 9.3262 33.5466 8.43338C31.9402 7.60303 30.264 6.94903 28.5143 6.47507C27.485 6.19951 26.4447 5.9864 25.3897 5.84311C24.026 5.65573 22.6549 5.57123 21.2764 5.60429C20.3023 5.63001 19.3282 5.7035 18.3614 5.83944C17.2696 5.99008 16.1926 6.21053 15.1266 6.50078C13.7959 6.86452 12.5093 7.33481 11.2558 7.90798C9.87368 8.53993 8.56138 9.29313 7.31524 10.1602C6.22717 10.9171 5.20526 11.7548 4.24952 12.6733C4.14292 12.7762 4.03632 12.8791 3.91501 12.9967C2.60271 11.6813 1.30878 10.3807 0.00750732 9.07636C0.0479425 9.03227 0.0773505 8.99185 0.110434 8.95878C1.40803 7.68018 2.80488 6.52283 4.30466 5.48305C6.04337 4.2816 7.88868 3.27121 9.83325 2.44453C11.1345 1.88974 12.4689 1.43782 13.8363 1.07041C15.0089 0.75443 16.1963 0.511936 17.3946 0.335578C18.4423 0.181264 19.4936 0.0857361 20.5486 0.0416464C21.5631 -0.00244329 22.574 0.00123063 23.5849 0.0563427C24.4634 0.104107 25.3383 0.188612 26.2095 0.309858C27.2939 0.460498 28.3672 0.66625 29.4296 0.930788C30.6206 1.22839 31.7895 1.59213 32.9401 2.02936C35.1604 2.87441 37.2556 3.96195 39.2222 5.28832C40.5382 6.17379 41.7733 7.15478 42.9386 8.2313C44.6883 9.84793 46.2322 11.6409 47.5739 13.6102C48.64 15.1791 49.5516 16.8325 50.3125 18.5703C51.0955 20.356 51.702 22.1967 52.1284 24.0999C52.2718 24.7355 52.3784 25.3748 52.5033 26.0141C52.6871 26.8408 52.9261 30.5995 52.8709 32.0471Z" fill="black"/>
<path d="M37.6782 31.793V64.9925H31.9033L31.8849 31.7636H12.4614V26.223L57.5098 26.2046V31.7856L37.6782 31.793Z" fill="#005ED5"/>
<path d="M75.3193 44.0059H76.8164V49.2012C76.8164 49.7435 76.8027 50.2926 76.7754 50.8486C76.748 51.4001 76.7275 51.7738 76.7139 51.9697H76.7754L81.8818 44.0059H83.7891V54H82.2852V48.8457C82.2852 48.0573 82.3285 47.1003 82.415 45.9746H82.3604L77.2334 54H75.3193V44.0059Z" fill="#122034"/>
<path d="M96.3891 54H94.7484V49.4951H90.141V54H88.5072V44.0059H90.141V48.0938H94.7484V44.0059H96.3891V54Z" fill="#122034"/>
<path d="M104.573 54H102.939V45.4072H99.9998V44.0059H107.513V45.4072H104.573V54Z" fill="#122034"/>
<path d="M116.804 54H111.151V44.0059H116.804V45.3867H112.784V48.1074H116.551V49.4746H112.784V52.6123H116.804V54Z" fill="#122034"/>
<path d="M127.688 47.0273C127.688 48.071 127.346 48.8708 126.663 49.4268C125.979 49.9827 125.006 50.2607 123.744 50.2607H122.705V54H121.071V44.0059H123.949C125.198 44.0059 126.132 44.2611 126.752 44.7715C127.376 45.2819 127.688 46.0339 127.688 47.0273ZM122.705 48.8867H123.573C124.411 48.8867 125.027 48.7409 125.419 48.4492C125.81 48.1576 126.006 47.7018 126.006 47.082C126.006 46.5078 125.831 46.0794 125.48 45.7969C125.129 45.5143 124.582 45.373 123.839 45.373H122.705V48.8867Z" fill="#122034"/>
<path d="M139.666 54H138.025V49.4951H133.418V54H131.784V44.0059H133.418V48.0938H138.025V44.0059H139.666V54Z" fill="#122034"/>
<path d="M150.051 54H144.398V44.0059H150.051V45.3867H146.032V48.1074H149.798V49.4746H146.032V52.6123H150.051V54Z" fill="#122034"/>
<path d="M157.77 54H156.137V45.4072H153.197V44.0059H160.71V45.4072H157.77V54Z" fill="#122034"/>
<path d="M163.521 50.9307V49.5635H167.034V50.9307H163.521Z" fill="#122034"/>
<path d="M175.28 54L172.381 45.6533H172.327C172.404 46.8929 172.443 48.055 172.443 49.1396V54H170.96V44.0059H173.263L176.039 51.9561H176.08L178.937 44.0059H181.248V54H179.675V49.0576C179.675 48.5609 179.687 47.9137 179.71 47.1162C179.737 46.3187 179.76 45.8356 179.778 45.667H179.723L176.722 54H175.28Z" fill="#122034"/>
<path d="M192.18 54L191.182 51.2246H187.36L186.383 54H184.66L188.399 43.9648H190.177L193.916 54H192.18ZM190.751 49.8164L189.814 47.0957C189.746 46.9134 189.65 46.6263 189.527 46.2344C189.409 45.8424 189.327 45.5553 189.281 45.373C189.158 45.9336 188.978 46.5465 188.741 47.2119L187.839 49.8164H190.751Z" fill="#122034"/>
<path d="M203.269 44.0059V45.4072H198.969V54H197.335V44.0059H203.269Z" fill="#122034"/>
<path d="M213.196 54L212.198 51.2246H208.377L207.399 54H205.677L209.416 43.9648H211.193L214.932 54H213.196ZM211.767 49.8164L210.831 47.0957C210.762 46.9134 210.667 46.6263 210.544 46.2344C210.425 45.8424 210.343 45.5553 210.298 45.373C210.175 45.9336 209.995 46.5465 209.758 47.2119L208.855 49.8164H211.767Z" fill="#122034"/>
<path d="M224.689 46.3438C224.689 46.9954 224.472 47.5286 224.039 47.9434C223.611 48.3581 223.016 48.6224 222.255 48.7363V48.7773C223.13 48.8822 223.795 49.1419 224.251 49.5566C224.711 49.9668 224.942 50.5046 224.942 51.1699C224.942 52.0996 224.577 52.8265 223.848 53.3506C223.123 53.8747 222.121 54.1367 220.84 54.1367C219.509 54.1367 218.445 53.9567 217.648 53.5967V52.168C218.09 52.3776 218.584 52.5394 219.131 52.6533C219.682 52.7673 220.186 52.8242 220.642 52.8242C222.396 52.8242 223.274 52.25 223.274 51.1016C223.274 50.5729 223.009 50.1696 222.481 49.8916C221.957 49.6136 221.177 49.4746 220.143 49.4746H218.94V48.1621H220.068C222.059 48.1621 223.055 47.6312 223.055 46.5693C223.055 46.1455 222.884 45.8105 222.542 45.5645C222.205 45.3184 221.731 45.1953 221.12 45.1953C220.637 45.1953 220.177 45.2591 219.739 45.3867C219.302 45.5143 218.849 45.7308 218.379 46.0361L217.634 44.9287C218.659 44.2178 219.867 43.8623 221.257 43.8623C222.314 43.8623 223.151 44.0879 223.766 44.5391C224.381 44.9902 224.689 45.5918 224.689 46.3438Z" fill="#122034"/>
<path d="M229.051 44.0059H230.548V49.2012C230.548 49.7435 230.535 50.2926 230.507 50.8486C230.48 51.4001 230.46 51.7738 230.446 51.9697H230.507L235.614 44.0059H237.521V54H236.017V48.8457C236.017 48.0573 236.06 47.1003 236.147 45.9746H236.092L230.965 54H229.051V44.0059Z" fill="#122034"/>
<path d="M250.121 54H248.48V49.4951H243.873V54H242.239V44.0059H243.873V48.0938H248.48V44.0059H250.121V54Z" fill="#122034"/>
</svg>
