<svg width="113" height="29" viewBox="0 0 113 29" fill="none" xmlns="http://www.w3.org/2000/svg">
<path fill-rule="evenodd" clip-rule="evenodd" d="M33.2035 5.97794C33.9944 4.37142 35.4614 3.56934 37.6069 3.56934C39.2003 3.56934 40.4263 3.99618 41.2803 4.84517C42.139 5.69885 42.5671 6.89964 42.5671 8.44987C42.5671 10.0634 42.1437 11.3041 41.2967 12.1671C40.452 13.0326 39.2611 13.4641 37.7286 13.4641C36.3481 13.4641 35.2859 13.192 34.5442 12.6456C33.8025 12.0991 33.2831 11.3909 32.9883 10.5208L35.7632 9.77026C36.0323 10.7529 36.65 11.2454 37.6186 11.2454C38.7487 11.2454 39.3921 10.6333 39.5536 9.41144H36.6757V7.63606H39.5676C39.3804 6.40478 38.7276 5.78797 37.6069 5.78797C36.7342 5.78797 36.1516 6.18902 35.8615 6.98876L33.2035 5.97794ZM44.2587 11.0345C44.4249 10.8586 44.5068 10.5349 44.5068 10.0659V3.73359H52.7052V13.3047H49.7548V6.08357H47.4501V9.02925C47.4501 10.2394 47.387 11.1283 47.2583 11.6958C47.1296 12.2634 46.8301 12.6809 46.3598 12.9459C45.8872 13.2109 45.1268 13.3446 44.0763 13.3446C43.7557 13.3446 43.386 13.3094 42.9696 13.239V11.2995H43.4118C43.8119 11.2995 44.0926 11.2104 44.2587 11.0345ZM57.2396 9.0269V3.73359H54.4577V13.3023H57.2419L60.8147 8.04891V13.3023H63.5873V3.73359H60.8287L57.2396 9.0269ZM67.5999 6.09529H64.591V3.73359H73.5593V6.09529H70.5503V13.3023H67.5999V6.09529ZM77.5297 9.2497H82.1226V7.29842H77.5297V5.77633H82.4806V3.73359H74.5747V13.3023H82.6233V11.1353H77.5297V9.2497ZM88.9827 3.73109C90.052 3.73109 90.8522 3.98673 91.3833 4.49565C91.9144 5.00692 92.1812 5.72927 92.1812 6.66973C92.1812 7.63598 91.891 8.39116 91.3108 8.93527C90.7329 9.47937 89.8461 9.75143 88.6575 9.75143H87.0431V13.3022H84.0787V3.73109H88.9827ZM87.7661 7.81422C88.3346 7.81422 88.7347 7.71338 88.964 7.51637C89.1933 7.31702 89.3103 7.06373 89.3103 6.75885C89.3103 6.45865 89.2097 6.20302 89.0108 5.99429C88.8096 5.78556 88.4352 5.68002 87.8831 5.68002H87.0431V7.81422H87.7661ZM100.583 4.49565C100.052 3.98673 99.2518 3.73109 98.1826 3.73109H93.2785V13.3022H96.2429V9.75143H97.8573C99.0459 9.75143 99.9327 9.47937 100.511 8.93527C101.091 8.39116 101.381 7.63598 101.381 6.66973C101.381 5.72927 101.117 5.00692 100.583 4.49565ZM98.1638 7.51637C97.9346 7.71338 97.5345 7.81422 96.9659 7.81422H96.2429V5.68002H97.0829C97.6351 5.68002 98.0094 5.78556 98.2106 5.99429C98.4095 6.20302 98.5101 6.45865 98.5101 6.75885C98.5101 7.06373 98.3955 7.31702 98.1638 7.51637ZM104.479 3.73359H107.696L111.283 13.3047H108.194L107.717 11.724H104.366L103.901 13.3047H100.89L104.479 3.73359ZM106.051 6.21256L105.008 9.6531H107.104L106.051 6.21256Z" fill="#005ED5"/>
<path d="M23.5214 14.2979C23.5149 14.4324 23.51 14.5684 23.5018 14.7028C23.4658 15.3028 23.3873 15.8962 23.2728 16.4863C23.1567 17.083 22.9997 17.6682 22.8068 18.2436C22.5435 19.0222 22.2115 19.7713 21.8141 20.4926C21.4625 21.1286 21.0635 21.7318 20.617 22.3056C20.1771 22.8711 19.6963 23.3973 19.1746 23.8874C18.6464 24.3841 18.0822 24.8382 17.4804 25.2447C17.2727 25.3841 17.0601 25.5152 16.8492 25.6513C16.8181 25.6709 16.7887 25.689 16.7543 25.7103L16.751 29.0002H14.1934V26.9085C14.1508 26.8987 14.1034 26.92 14.0674 26.9315C13.9137 26.9774 13.76 27.0282 13.6063 27.0741C13.1647 27.2052 12.7166 27.3102 12.2636 27.3938C11.8008 27.479 11.3348 27.5396 10.8654 27.5774C10.2652 27.6265 9.66344 27.6347 9.06163 27.6069C8.62499 27.5855 8.18999 27.5429 7.75662 27.4806C7.17934 27.397 6.61024 27.2774 6.04931 27.1216C5.44587 26.9544 4.85714 26.7463 4.28313 26.4971C3.81215 26.2938 3.35262 26.0643 2.9078 25.8086C2.3109 25.4644 1.74016 25.0808 1.2005 24.653C0.794928 24.3317 0.40735 23.9907 0.0410313 23.6252C0.0295839 23.6137 0.00341797 23.5776 0.00341797 23.5776C0.00341797 23.5776 0.0115948 23.5711 0.0132302 23.5678C0.574156 22.9924 1.14326 22.4121 1.70909 21.8335C1.70909 21.8335 1.74343 21.8745 1.76142 21.8925C2.18661 22.3171 2.64451 22.7023 3.13185 23.0531C3.67805 23.4465 4.25533 23.7874 4.86205 24.0776C5.50147 24.3825 6.16542 24.6251 6.85063 24.8054C7.28073 24.9185 7.71573 25.0038 8.15564 25.066C8.67078 25.1382 9.18919 25.1726 9.70923 25.1742C10.1704 25.1742 10.6299 25.148 11.0878 25.0923C12.123 24.9677 13.1206 24.7021 14.0822 24.3022C14.1181 24.2874 15.0863 23.8235 15.4264 23.5907L16.7723 22.6924C16.9113 22.6187 17.4264 22.1597 17.8157 21.7614C18.617 20.9434 19.2777 20.0254 19.801 19.0058C20.3374 17.96 20.6988 16.8568 20.8934 15.6978C20.9752 15.2077 21.0537 14.3815 21.0275 14.1848C21.0994 13.3275 21.0389 12.4964 20.8329 11.6916C20.8313 11.6686 20.8329 11.6489 20.8296 11.6309C20.7806 11.3719 20.72 11.1162 20.6514 10.8605C20.3521 9.75399 19.8926 8.71963 19.2793 7.75248C18.6693 6.79189 17.9301 5.94277 17.065 5.20512C16.406 4.64286 15.693 4.16093 14.9244 3.76259C14.2097 3.39213 13.464 3.10034 12.6856 2.88888C12.2277 2.76594 11.7649 2.67087 11.2955 2.60694C10.6888 2.52333 10.0788 2.48563 9.46556 2.50038C9.03219 2.51186 8.59882 2.54464 8.16873 2.6053C7.68303 2.6725 7.20387 2.77086 6.72962 2.90036C6.13762 3.06264 5.56525 3.27246 5.00759 3.52818C4.3927 3.81013 3.80888 4.14617 3.2545 4.53303C2.77043 4.87071 2.3158 5.24446 1.89061 5.65427C1.84319 5.70017 1.79576 5.74606 1.7418 5.79852C1.15798 5.21167 0.582332 4.63139 0.00341797 4.04946C0.0214068 4.02979 0.0344899 4.01176 0.0492081 3.997C0.626487 3.42655 1.24792 2.91019 1.91514 2.44629C2.68866 1.91026 3.50961 1.45947 4.37471 1.09065C4.95363 0.843122 5.54726 0.641496 6.15561 0.477573C6.67729 0.336599 7.20551 0.22841 7.73863 0.149727C8.20471 0.080879 8.67242 0.038259 9.14176 0.0185882C9.59312 -0.00108257 10.0428 0.000556562 10.4926 0.025145C10.8834 0.046455 11.2726 0.0841573 11.6602 0.138252C12.1426 0.20546 12.6202 0.297257 13.0928 0.415282C13.6226 0.54806 14.1427 0.710344 14.6545 0.905413C15.6423 1.28244 16.5744 1.76765 17.4493 2.35941C18.0348 2.75447 18.5843 3.19214 19.1027 3.67244C19.8811 4.3937 20.568 5.19364 21.1649 6.07227C21.6391 6.77222 22.0447 7.50988 22.3832 8.28523C22.7315 9.0819 23.0014 9.90316 23.1911 10.7523C23.2548 11.0359 23.3023 11.3211 23.3579 11.6063C23.4396 11.9751 23.5459 13.6521 23.5214 14.2979Z" fill="black"/>
<path d="M16.7625 14.1847V28.9968H14.1933L14.1851 14.1716H5.54395V11.6996L25.5852 11.6914V14.1814L16.7625 14.1847Z" fill="#005ED5"/>
<path d="M33.5083 19.6334H34.1743V21.9513C34.1743 22.1932 34.1682 22.4383 34.1561 22.6863C34.1439 22.9323 34.1348 23.0991 34.1287 23.1865H34.1561L36.4278 19.6334H37.2763V24.0923H36.6073V21.7927C36.6073 21.4409 36.6265 21.014 36.6651 20.5117H36.6407L34.3598 24.0923H33.5083V19.6334Z" fill="#122034"/>
<path d="M42.8818 24.0923H42.152V22.0824H40.1022V24.0923H39.3754V19.6334H40.1022V21.4572H42.152V19.6334H42.8818V24.0923Z" fill="#122034"/>
<path d="M46.5227 24.0923H45.7959V20.2586H44.4882V19.6334H47.8305V20.2586H46.5227V24.0923Z" fill="#122034"/>
<path d="M51.964 24.0923H49.449V19.6334H51.964V20.2495H50.1758V21.4633H51.8515V22.0733H50.1758V23.4732H51.964V24.0923Z" fill="#122034"/>
<path d="M56.8062 20.9814C56.8062 21.447 56.6542 21.8039 56.35 22.0519C56.0459 22.3 55.6131 22.424 55.0514 22.424H54.5892V24.0923H53.8623V19.6334H55.1427C55.6982 19.6334 56.1138 19.7472 56.3896 19.975C56.6673 20.2027 56.8062 20.5382 56.8062 20.9814ZM54.5892 21.811H54.9754C55.3485 21.811 55.6222 21.7459 55.7965 21.6158C55.9709 21.4857 56.0581 21.2824 56.0581 21.0058C56.0581 20.7496 55.98 20.5585 55.8239 20.4325C55.6678 20.3064 55.4245 20.2434 55.094 20.2434H54.5892V21.811Z" fill="#122034"/>
<path d="M62.135 24.0923H61.4051V22.0824H59.3553V24.0923H58.6285V19.6334H59.3553V21.4572H61.4051V19.6334H62.135V24.0923Z" fill="#122034"/>
<path d="M66.7551 24.0923H64.2401V19.6334H66.7551V20.2495H64.9669V21.4633H66.6426V22.0733H64.9669V23.4732H66.7551V24.0923Z" fill="#122034"/>
<path d="M70.1892 24.0923H69.4624V20.2586H68.1547V19.6334H71.497V20.2586H70.1892V24.0923Z" fill="#122034"/>
<path d="M72.7475 22.7229V22.1129H74.3107V22.7229H72.7475Z" fill="#122034"/>
<path d="M77.9789 24.0923L76.6895 20.3684H76.6651C76.6996 20.9214 76.7168 21.4399 76.7168 21.9238V24.0923H76.0569V19.6334H77.0818L78.3165 23.1804H78.3348L79.606 19.6334H80.6339V24.0923H79.9344V21.8872C79.9344 21.6656 79.9395 21.3769 79.9496 21.0211C79.9618 20.6653 79.9719 20.4497 79.98 20.3745H79.9557L78.6206 24.0923H77.9789Z" fill="#122034"/>
<path d="M85.4974 24.0923L85.0533 22.8541H83.3533L82.9184 24.0923H82.1521L83.8156 19.6151H84.6063L86.2698 24.0923H85.4974ZM84.8617 22.2258L84.4451 21.0119C84.4147 20.9306 84.3721 20.8025 84.3174 20.6276C84.2647 20.4528 84.2282 20.3247 84.2079 20.2434C84.1532 20.4934 84.0731 20.7669 83.9676 21.0638L83.5662 22.2258H84.8617Z" fill="#122034"/>
<path d="M90.4308 19.6334V20.2586H88.5179V24.0923H87.791V19.6334H90.4308Z" fill="#122034"/>
<path d="M94.8472 24.0923L94.4032 22.8541H92.7031L92.2682 24.0923H91.5019L93.1654 19.6151H93.9561L95.6196 24.0923H94.8472ZM94.2116 22.2258L93.7949 21.0119C93.7645 20.9306 93.7219 20.8025 93.6672 20.6276C93.6145 20.4528 93.578 20.3247 93.5577 20.2434C93.503 20.4934 93.4229 20.7669 93.3175 21.0638L92.916 22.2258H94.2116Z" fill="#122034"/>
<path d="M99.96 20.6764C99.96 20.9672 99.8637 21.2051 99.6711 21.3901C99.4805 21.5751 99.2159 21.6931 98.8773 21.7439V21.7622C99.2666 21.809 99.5626 21.9249 99.7654 22.1099C99.9702 22.2929 100.073 22.5328 100.073 22.8297C100.073 23.2444 99.9103 23.5687 99.5859 23.8026C99.2636 24.0364 98.8175 24.1533 98.2478 24.1533C97.6558 24.1533 97.1824 24.073 96.8276 23.9124V23.2749C97.0243 23.3685 97.2442 23.4406 97.4875 23.4915C97.7329 23.5423 97.9569 23.5677 98.1596 23.5677C98.9402 23.5677 99.3305 23.3115 99.3305 22.7992C99.3305 22.5633 99.2129 22.3834 98.9777 22.2593C98.7446 22.1353 98.3979 22.0733 97.9376 22.0733H97.4024V21.4877H97.9042C98.7902 21.4877 99.2332 21.2508 99.2332 20.7771C99.2332 20.588 99.1571 20.4386 99.0051 20.3288C98.855 20.219 98.6442 20.1641 98.3725 20.1641C98.1576 20.1641 97.9528 20.1925 97.7582 20.2495C97.5636 20.3064 97.3618 20.403 97.153 20.5392L96.8215 20.0451C97.2777 19.7279 97.815 19.5693 98.4333 19.5693C98.9037 19.5693 99.2757 19.67 99.5495 19.8713C99.8232 20.0726 99.96 20.341 99.96 20.6764Z" fill="#122034"/>
<path d="M101.901 19.6334H102.567V21.9513C102.567 22.1932 102.561 22.4383 102.549 22.6863C102.536 22.9323 102.527 23.0991 102.521 23.1865H102.549L104.82 19.6334H105.669V24.0923H105V21.7927C105 21.4409 105.019 21.014 105.058 20.5117H105.033L102.752 24.0923H101.901V19.6334Z" fill="#122034"/>
<path d="M111.274 24.0923H110.545V22.0824H108.495V24.0923H107.768V19.6334H108.495V21.4572H110.545V19.6334H111.274V24.0923Z" fill="#122034"/>
</svg>
