<svg width="10" height="17" viewBox="0 0 10 17" fill="none" xmlns="http://www.w3.org/2000/svg">
<path d="M8.59688 10.4375C7.74063 10.9812 6.56251 11.1969 5.78438 11.2781L6.43751 11.9219L8.82188 14.3062C9.69376 15.2 8.27501 16.5969 7.39376 15.7344C6.79688 15.1281 5.92188 14.2531 5.00938 13.3406L2.62501 15.7312C1.74376 16.5906 0.325007 15.1813 1.20626 14.3031C1.81251 13.6969 2.67813 12.8219 3.59063 11.9187L4.23438 11.275C3.46563 11.1937 2.26876 10.9906 1.40313 10.4344C0.384382 9.77812 -0.0624931 9.39375 0.331257 8.59062C0.562507 8.13437 1.19688 7.75 2.03751 8.4125C2.03751 8.4125 3.17188 9.31563 5.00313 9.31563C6.83438 9.31563 7.96876 8.4125 7.96876 8.4125C8.80938 7.75313 9.44063 8.13437 9.67501 8.59062C10.0625 9.39375 9.61563 9.77812 8.59688 10.4375ZM0.946882 4.05312C0.946882 1.8125 2.76876 0 5.00001 0C7.23126 0 9.05313 1.8125 9.05313 4.05312C9.05313 6.28438 7.23126 8.09688 5.00001 8.09688C2.76876 8.09688 0.946882 6.28438 0.946882 4.05312ZM3.00938 4.05312C3.00938 5.15 3.90313 6.04375 5.00001 6.04375C6.09688 6.04375 6.99063 5.15 6.99063 4.05312C6.99063 2.94687 6.09688 2.05312 5.00001 2.05312C3.90313 2.05312 3.00938 2.94687 3.00938 4.05312Z" fill="white"/>
</svg>
