<svg width="503" height="503" viewBox="0 0 503 503" fill="none" xmlns="http://www.w3.org/2000/svg">
<path fill-rule="evenodd" clip-rule="evenodd" d="M500.864 218.67L502.847 218.411C495.849 164.961 471.818 113.315 430.755 72.2516C389.691 31.1882 338.045 7.15756 284.596 0.159546L284.336 2.14263C337.364 9.08544 388.599 32.9249 429.34 73.6658C470.081 114.407 493.921 165.642 500.864 218.67ZM218.67 2.14262L218.41 0.159546C164.961 7.15757 113.315 31.1882 72.2515 72.2516C31.1881 113.315 7.15745 164.961 0.159429 218.411L2.1425 218.67C9.08531 165.642 32.9248 114.407 73.6657 73.6658C114.407 32.9249 165.642 9.08544 218.67 2.14262ZM72.2515 430.755C31.1881 389.691 7.15745 338.045 0.159424 284.596L2.1425 284.336C9.08531 337.364 32.9248 388.6 73.6657 429.34C114.407 470.081 165.642 493.921 218.67 500.864L218.41 502.847C164.961 495.849 113.315 471.818 72.2515 430.755ZM284.336 500.864L284.596 502.847C338.045 495.849 389.691 471.818 430.755 430.755C471.818 389.691 495.849 338.045 502.847 284.596L500.864 284.336C493.921 337.364 470.081 388.6 429.34 429.34C388.599 470.081 337.364 493.921 284.336 500.864ZM432.848 207.723L430.902 208.188C423.205 175.995 406.797 145.46 381.671 120.335C356.546 95.2094 326.011 78.8009 293.818 71.1038L294.283 69.1586C326.826 76.9392 357.691 93.5265 383.086 118.921C408.48 144.315 425.067 175.181 432.848 207.723ZM206.723 69.1586L207.188 71.1038C174.995 78.8009 144.46 95.2094 119.335 120.335C94.2093 145.46 77.8008 175.995 70.1037 208.188L68.1585 207.723C75.9391 175.181 92.5264 144.315 117.921 118.921C143.315 93.5265 174.181 76.9392 206.723 69.1586ZM68.1585 295.283C75.9391 327.826 92.5264 358.692 117.921 384.086C143.315 409.48 174.181 426.067 206.723 433.848L207.188 431.903C174.995 424.205 144.46 407.797 119.335 382.671C94.2093 357.546 77.8008 327.011 70.1037 294.818L68.1585 295.283ZM294.283 433.848L293.818 431.903C326.011 424.205 356.546 407.797 381.671 382.671C406.797 357.546 423.205 327.011 430.902 294.818L432.848 295.283C425.067 327.826 408.48 358.692 383.086 384.086C357.691 409.48 326.826 426.067 294.283 433.848ZM367.022 224.907L365.072 225.351C360.33 204.487 349.838 184.668 333.588 168.418C317.338 152.168 297.519 141.676 276.656 136.934L277.099 134.984C298.319 139.807 318.478 150.48 335.002 167.004C351.526 183.528 362.2 203.687 367.022 224.907ZM223.907 134.984L224.351 136.934C203.487 141.676 183.668 152.168 167.418 168.418C151.168 184.668 140.676 204.487 135.934 225.351L133.984 224.907C138.807 203.687 149.48 183.528 166.004 167.004C182.528 150.48 202.687 139.807 223.907 134.984ZM133.984 278.099C138.807 299.319 149.48 319.478 166.004 336.002C182.528 352.526 202.687 363.2 223.907 368.022L224.351 366.072C203.487 361.331 183.668 350.838 167.418 334.588C151.168 318.339 140.676 298.519 135.934 277.656L133.984 278.099ZM277.099 368.022L276.656 366.072C297.519 361.331 317.338 350.838 333.588 334.588C349.838 318.339 360.33 298.519 365.072 277.656L367.022 278.099C362.2 299.319 351.526 319.478 335.002 336.002C318.478 352.526 298.319 363.2 277.099 368.022Z" fill="white"/>
</svg>
