<svg width="21" height="21" viewBox="0 0 21 21" fill="none" xmlns="http://www.w3.org/2000/svg">
<path d="M17.639 15.4432C16.7415 16.2382 15.4407 16.8084 13.7366 17.1537C12.0325 17.4991 10.2764 17.6001 8.4683 17.4567L5.03415 20.0371V16.8116C3.90244 16.4598 3.01789 16.0036 2.38049 15.4432C1.62602 14.7786 1.04065 13.824 0.624391 12.5794C0.20813 11.3348 0 10.0642 0 8.76746C0 7.47075 0.20813 6.2001 0.624391 4.95552C1.04065 3.71094 1.62927 2.75307 2.39025 2.0819C3.15122 1.41074 4.24065 0.895968 5.65854 0.537581C7.07643 0.179194 8.52684 0 10.0098 0C11.4927 0 12.9431 0.179194 14.361 0.537581C15.7789 0.895968 16.8683 1.41074 17.6293 2.0819C18.3903 2.75307 18.9789 3.71094 19.3951 4.95552C19.8114 6.2001 20.0195 7.47075 20.0195 8.76746C20.0195 10.0642 19.8114 11.3348 19.3951 12.5794C18.9789 13.824 18.3935 14.7786 17.639 15.4432ZM12.4683 10.6539L13.7366 10.8689C13.6325 9.30504 13.0309 7.96923 11.9317 6.86149C10.8325 5.75375 9.50245 5.14775 7.94147 5.04349L8.15611 6.31413C9.27481 6.45749 10.2374 6.93317 11.0439 7.74117C11.8504 8.54917 12.3252 9.52007 12.4683 10.6539ZM8.37074 7.62388L8.60489 9.03136C9.12521 9.29201 9.50895 9.67646 9.75611 10.1847L11.161 10.4193C11.0049 9.72859 10.6732 9.13236 10.1659 8.63062C9.65855 8.12888 9.06017 7.7933 8.37074 7.62388ZM6.28293 8.77723V7.52613C6.28293 7.30459 6.20163 7.08304 6.03903 6.86149C5.87643 6.63994 5.70407 6.48029 5.52196 6.38255C5.33984 6.28481 5.20326 6.27504 5.1122 6.35323L4.21464 7.272C3.70732 7.78026 3.63252 8.57197 3.99025 9.64713C4.34797 10.7223 5.0309 11.7649 6.03903 12.7749C7.04716 13.7849 8.08781 14.4691 9.16098 14.8275C10.2342 15.1858 11.0179 15.1109 11.5122 14.6027L12.4293 13.6839C12.5203 13.6057 12.5171 13.4721 12.4195 13.2831C12.322 13.0942 12.1626 12.9215 11.9415 12.7651C11.7203 12.6087 11.4992 12.5305 11.2781 12.5305H10.0293L9.30733 13.1561C8.73497 12.9997 8.02277 12.4947 7.17074 11.6411C6.31871 10.7875 5.81464 10.0674 5.65854 9.48097L6.28293 8.77723ZM7.53171 2.52174L7.72684 3.79239C9.02765 3.81845 10.2309 4.16055 11.3366 4.81868C12.4423 5.47681 13.3203 6.35649 13.9707 7.45771C14.6212 8.55894 14.9659 9.76117 15.0049 11.0644L16.2732 11.2794C16.2732 10.0935 16.0423 8.95968 15.5805 7.87801C15.1187 6.79633 14.4976 5.86452 13.7171 5.08258C12.9366 4.30065 12.0065 3.67836 10.9268 3.21571C9.84716 2.75307 8.71546 2.52174 7.53171 2.52174Z" fill="white"/>
</svg>
