<svg width="11" height="13" viewBox="0 0 11 13" fill="none" xmlns="http://www.w3.org/2000/svg">
<path d="M0.617188 0.150391H4.61621C6.43848 0.150391 7.75977 0.411133 8.58008 0.932617C9.40625 1.44824 9.81934 2.27148 9.81934 3.40234C9.81934 4.16992 9.6377 4.7998 9.27441 5.29199C8.91699 5.78418 8.43945 6.08008 7.8418 6.17969V6.26758C8.65625 6.44922 9.24219 6.78906 9.59961 7.28711C9.96289 7.78516 10.1445 8.44727 10.1445 9.27344C10.1445 10.4453 9.71973 11.3594 8.87012 12.0156C8.02637 12.6719 6.87793 13 5.4248 13H0.617188V0.150391ZM3.3418 5.23926H4.92383C5.66211 5.23926 6.19531 5.125 6.52344 4.89648C6.85742 4.66797 7.02441 4.29004 7.02441 3.7627C7.02441 3.27051 6.84277 2.91895 6.47949 2.70801C6.12207 2.49121 5.55371 2.38281 4.77441 2.38281H3.3418V5.23926ZM3.3418 7.40137V10.75H5.11719C5.86719 10.75 6.4209 10.6064 6.77832 10.3193C7.13574 10.0322 7.31445 9.59277 7.31445 9.00098C7.31445 7.93457 6.55273 7.40137 5.0293 7.40137H3.3418Z" fill="white"/>
</svg>
